<svg width="14" height="18" viewBox="0 0 14 18" fill="none" xmlns="http://www.w3.org/2000/svg">
<path d="M6.56534 0.443985C6.63366 0.279727 6.86635 0.279727 6.93466 0.443986L7.29822 1.31808C7.32702 1.38733 7.39214 1.43464 7.4669 1.44063L8.41056 1.51628C8.58789 1.5305 8.65979 1.7518 8.52469 1.86754L7.80572 2.48341C7.74876 2.5322 7.72389 2.60875 7.74129 2.68171L7.96095 3.60255C8.00222 3.7756 7.81397 3.91237 7.66215 3.81964L6.85425 3.32618C6.79025 3.28708 6.70975 3.28708 6.64575 3.32618L5.83785 3.81964C5.68603 3.91237 5.49778 3.7756 5.53906 3.60255L5.75871 2.68171C5.77611 2.60875 5.75124 2.5322 5.69428 2.48341L4.97531 1.86754C4.84021 1.7518 4.91211 1.5305 5.08944 1.51628L6.0331 1.44063C6.10786 1.43464 6.17298 1.38733 6.20178 1.31808L6.56534 0.443985Z" fill="#FFE600"/>
<path d="M7.07 18C6.87167 18 6.70553 17.9307 6.5716 17.792C6.43766 17.6533 6.37047 17.4819 6.37 17.2778C6.37 17.1935 6.3875 17.1061 6.4225 17.0156C6.4575 16.9251 6.51 16.844 6.58 16.7722L9.8175 13.4319L9.31 12.9083L6.09 16.2486C6.02 16.3208 5.94417 16.375 5.8625 16.4111C5.78083 16.4472 5.69333 16.4653 5.6 16.4653C5.40167 16.4653 5.2353 16.3962 5.1009 16.258C4.9665 16.1198 4.89953 15.9482 4.9 15.7431C4.9 15.6227 4.9175 15.5233 4.9525 15.4448C4.9875 15.3663 5.03417 15.2972 5.0925 15.2375L8.33 11.8972L7.84 11.3917L4.6025 14.7139C4.5325 14.7861 4.45667 14.8403 4.375 14.8764C4.29333 14.9125 4.2 14.9306 4.095 14.9306C3.90833 14.9306 3.745 14.8583 3.605 14.7139C3.465 14.5694 3.395 14.4009 3.395 14.2083C3.395 14.112 3.4125 14.0218 3.4475 13.9375C3.4825 13.8532 3.535 13.775 3.605 13.7028L6.8425 10.3625L6.335 9.85695L3.115 13.1972C3.05667 13.2574 2.98667 13.3056 2.905 13.3417C2.82333 13.3778 2.72417 13.3958 2.6075 13.3958C2.40917 13.3958 2.2428 13.3265 2.1084 13.1878C1.974 13.0492 1.90703 12.8778 1.9075 12.6736C1.9075 12.5773 1.925 12.487 1.96 12.4028C1.995 12.3185 2.0475 12.2403 2.1175 12.1681L6.02 8.14167L8.645 10.8681C8.77333 11.0005 8.925 11.1059 9.1 11.1844C9.275 11.2629 9.45 11.3019 9.625 11.3014C9.99833 11.3014 10.325 11.1659 10.605 10.8948C10.885 10.6237 11.025 10.2778 11.025 9.85695C11.025 9.68843 10.9958 9.51389 10.9375 9.33334C10.8792 9.15278 10.7742 8.98426 10.6225 8.82778L7.49 5.59584C7.68833 5.40324 7.91 5.25567 8.155 5.15311C8.4 5.05056 8.645 4.99952 8.89 5C9.19333 5 9.47333 5.05128 9.73 5.15384C9.98666 5.25639 10.22 5.41576 10.43 5.63195L13.3875 8.70139C13.5975 8.91806 13.7522 9.1588 13.8516 9.42361C13.951 9.68843 14.0005 9.99537 14 10.3444C14 10.5852 13.9475 10.8288 13.8425 11.0753C13.7375 11.3219 13.5858 11.5477 13.3875 11.7528L7.56 17.7833C7.46667 17.8796 7.385 17.9398 7.315 17.9639C7.245 17.988 7.16333 18 7.07 18ZM1.0675 12.2222L0.6125 11.7528C0.414167 11.5602 0.2625 11.3315 0.1575 11.0667C0.0524999 10.8019 0 10.525 0 10.2361C0 9.92315 0.0583333 9.63426 0.175 9.36945C0.291667 9.10463 0.4375 8.88195 0.6125 8.70139L3.57 5.63195C3.75667 5.43936 3.97833 5.28576 4.235 5.17117C4.49167 5.05658 4.7425 4.99952 4.9875 5C5.3025 5 5.5825 5.04526 5.8275 5.13578C6.0725 5.2263 6.31167 5.39169 6.545 5.63195L10.1325 9.33334C10.2025 9.40556 10.255 9.4838 10.29 9.56806C10.325 9.65232 10.3425 9.7426 10.3425 9.83889C10.3425 10.0315 10.2725 10.2 10.1325 10.3444C9.9925 10.4889 9.82916 10.5611 9.6425 10.5611C9.5375 10.5611 9.45 10.5459 9.38 10.5156C9.31 10.4853 9.23417 10.4282 9.1525 10.3444L6.0025 7.13056L1.0675 12.2222Z" fill="#0040A0"/>
</svg>
