<svg width="21" height="21" viewBox="0 0 21 21" fill="none" xmlns="http://www.w3.org/2000/svg">
<path fill-rule="evenodd" clip-rule="evenodd" d="M4.2 2.21053C3.64305 2.21053 3.1089 2.44342 2.71508 2.85797C2.32125 3.27253 2.1 3.83478 2.1 4.42105V13.2632C2.1 13.8494 2.32125 14.4117 2.71508 14.8262C3.1089 15.2408 3.64304 15.4737 4.2 15.4737H6.3C6.8799 15.4737 7.35 15.9685 7.35 16.5789V17.9426L11.0098 15.6312C11.173 15.5281 11.3597 15.4737 11.55 15.4737H16.8C17.357 15.4737 17.8911 15.2408 18.2849 14.8262C18.6787 14.4117 18.9 13.8494 18.9 13.2632V4.42105C18.9 3.83478 18.6787 3.27253 18.2849 2.85797C17.8911 2.44342 17.357 2.21053 16.8 2.21053H4.2ZM1.23015 1.2949C2.0178 0.465788 3.08609 0 4.2 0H16.8C17.9139 0 18.9822 0.465788 19.7698 1.2949C20.5575 2.124 21 3.24852 21 4.42105V13.2632C21 14.4357 20.5575 15.5602 19.7698 16.3893C18.9822 17.2184 17.9139 17.6842 16.8 17.6842H11.8408L6.84022 20.8425C6.51584 21.0474 6.11185 21.0527 5.78267 20.8565C5.45348 20.6603 5.25 20.2929 5.25 19.8947V17.6842H4.2C3.08609 17.6842 2.0178 17.2184 1.23015 16.3893C0.442499 15.5602 0 14.4357 0 13.2632V4.42105C0 3.24852 0.442499 2.124 1.23015 1.2949ZM5.25 6.63158C5.25 6.02116 5.7201 5.52632 6.3 5.52632H14.7C15.2799 5.52632 15.75 6.02116 15.75 6.63158C15.75 7.242 15.2799 7.73684 14.7 7.73684H6.3C5.7201 7.73684 5.25 7.242 5.25 6.63158ZM5.25 11.0526C5.25 10.4422 5.7201 9.94737 6.3 9.94737H12.6C13.1799 9.94737 13.65 10.4422 13.65 11.0526C13.65 11.6631 13.1799 12.1579 12.6 12.1579H6.3C5.7201 12.1579 5.25 11.6631 5.25 11.0526Z" fill="#101014"/>
</svg>
