<svg width="15" height="8" viewBox="0 0 15 8" fill="none" xmlns="http://www.w3.org/2000/svg">
<path fill-rule="evenodd" clip-rule="evenodd" d="M0.607668 6.41911C0.160824 6.03055 -0.441514 5.10191 0.491031 4.49575C0.892206 4.23499 1.14842 4.24345 1.49962 4.25506C1.9745 4.27075 2.62305 4.29218 4.03849 3.66152C4.3035 4.07678 4.66896 4.57518 4.8954 4.61292C5.17517 4.65955 5.36167 4.55463 5.24511 4.3215C5.02432 4.11175 4.70491 3.76405 4.47024 3.46012C4.71923 3.33909 4.98898 3.20004 5.28185 3.04033C5.66917 3.50281 6.25278 4.08836 6.41079 4.08836C6.64393 4.08836 6.83512 4.00447 6.70221 3.73866C6.62343 3.58109 6.18324 3.16622 5.74422 2.78187C5.89177 2.69746 6.04459 2.60829 6.20293 2.51409C6.32999 2.4385 6.45244 2.36766 6.57047 2.30135C6.99267 2.83928 7.62864 3.56381 7.86789 3.56381C8.14766 3.56381 8.25106 3.38883 8.15931 3.27238C7.89134 3.00452 7.32991 2.408 7.18703 1.97596C9.27393 0.954149 9.67211 1.66631 10.0604 2.36069C10.3066 2.80109 10.5488 3.23433 11.2154 3.2135C12.3657 3.17755 12.5045 3.05844 12.7214 2.87222C12.7858 2.8169 12.8571 2.75566 12.9639 2.68892L14.1296 3.03863C14.2458 3.06769 14.1998 3.27346 14.1475 3.5072C14.0949 3.74232 14.036 4.00573 14.1296 4.14603C14.3627 4.49575 14.2732 6.37306 14.2461 6.53567C14.1296 7.23508 12.8473 7.23508 12.8473 7.23508V7.75964H11.8565L11.7399 7.23508H11.0988L10.9822 7.75964H9.81655L9.69998 7.11852H6.96062L6.84406 7.75964H5.67837L5.56181 7.11852H5.09553L4.97897 7.75964H3.92985L3.63843 7.11852H3.28873L3.05559 7.75964H2.35618L2.06476 7.00195H1.65677L1.59849 7.23508H1.13222C1.07091 7.15846 1.01263 7.04689 0.950221 6.92741C0.854402 6.74395 0.748853 6.54188 0.607668 6.41911Z" fill="#606060"/>
<path d="M3.73113 3.15447C2.44889 3.62079 1.74948 3.85392 0.758642 3.73731C0.700358 3.34876 0.910181 2.60663 2.21574 2.74651C3.8477 2.92136 8.21901 -0.167696 9.09327 0.0071561C9.79268 0.147038 9.96753 0.842562 9.96753 1.17284C9.9481 1.13397 9.78643 0.764822 9.09327 0.764822C8.04416 0.764822 4.73665 2.78879 3.73113 3.15447Z" fill="#606060"/>
<path d="M11.0749 2.39682C10.5154 2.25695 10.2201 1.65856 10.1424 1.28942C10.4532 1.56141 11.2964 2.09374 11.9492 1.81398C12.7652 1.46427 12.8817 1.28942 13.2897 1.28942C13.6161 1.28942 13.5812 1.93055 13.6394 2.28025C13.348 2.14426 12.8817 2.04712 12.6486 2.1054C12.3957 2.16862 11.7743 2.57166 11.0749 2.39682Z" fill="#606060"/>
</svg>
