<svg width="17" height="17" viewBox="0 0 17 17" fill="none" xmlns="http://www.w3.org/2000/svg">
<path fill-rule="evenodd" clip-rule="evenodd" d="M8.88889 0.777344C6.73757 0.777344 4.67437 1.63195 3.15316 3.15316C1.63195 4.67437 0.777344 6.73757 0.777344 8.88889C0.777344 11.0402 1.63195 13.1034 3.15316 14.6246C4.67437 16.1458 6.73757 17.0004 8.88889 17.0004C9.95411 17.0004 11.0089 16.7906 11.993 16.383C12.9772 15.9753 13.8714 15.3778 14.6246 14.6246C15.3778 13.8714 15.9753 12.9772 16.383 11.993C16.7906 11.0089 17.0004 9.95411 17.0004 8.88889C17.0004 7.82367 16.7906 6.76887 16.383 5.78473C15.9753 4.8006 15.3778 3.90639 14.6246 3.15316C13.8714 2.39993 12.9772 1.80244 11.993 1.3948C11.0089 0.987155 9.95411 0.777344 8.88889 0.777344ZM4.11805 4.11805C5.22151 3.01459 6.66782 2.33283 8.20661 2.17647V4.11278C8.20661 4.4896 8.51208 4.79506 8.88889 4.79506C9.2657 4.79506 9.57117 4.4896 9.57117 4.11278V2.17649C10.2231 2.24276 10.8632 2.40378 11.4708 2.65549C12.2894 2.99455 13.0332 3.49153 13.6597 4.11805C14.2862 4.74456 14.7832 5.48835 15.1223 6.30693C15.374 6.9146 15.535 7.55466 15.6013 8.20661H13.6648C13.288 8.20661 12.9826 8.51208 12.9826 8.88889C12.9826 9.2657 13.288 9.57117 13.6648 9.57117H15.6013C15.535 10.2231 15.374 10.8632 15.1223 11.4708C14.7832 12.2894 14.2862 13.0332 13.6597 13.6597C13.0332 14.2862 12.2894 14.7832 11.4708 15.1223C10.8632 15.374 10.2231 15.535 9.57117 15.6013V13.6648C9.57117 13.288 9.2657 12.9826 8.88889 12.9826C8.51208 12.9826 8.20661 13.288 8.20661 13.6648V15.6013C6.66782 15.445 5.22151 14.7632 4.11805 13.6597C3.01459 12.5563 2.33283 11.11 2.17647 9.57117H4.11278C4.4896 9.57117 4.79506 9.2657 4.79506 8.88889C4.79506 8.51208 4.4896 8.20661 4.11278 8.20661H2.17647C2.33283 6.66782 3.01459 5.22151 4.11805 4.11805ZM8.88827 11.0109C10.0606 11.0109 11.0109 10.0606 11.0109 8.88827C11.0109 7.71597 10.0606 6.76562 8.88827 6.76562C7.71597 6.76562 6.76562 7.71597 6.76562 8.88827C6.76562 10.0606 7.71597 11.0109 8.88827 11.0109Z" fill="#FF7111"/>
</svg>
