<svg width="21" height="22" viewBox="0 0 21 22" fill="none" xmlns="http://www.w3.org/2000/svg">
<path fill-rule="evenodd" clip-rule="evenodd" d="M6.64005 1.66667C6.64005 1.02233 6.11772 0.5 5.47338 0.5C4.82905 0.5 4.30672 1.02233 4.30672 1.66667V3.82003V5.97436C4.30672 6.61869 4.82905 7.14103 5.47338 7.14103C6.11772 7.14103 6.64005 6.61869 6.64005 5.97436V4.98669H12.6529C13.2972 4.98669 13.8195 4.46436 13.8195 3.82003C13.8195 3.17569 13.2972 2.65336 12.6529 2.65336H6.64005V1.66667ZM0.762273 3.41563C1.25035 2.92756 1.91232 2.65336 2.60256 2.65336C3.2469 2.65336 3.76923 3.17569 3.76923 3.82002C3.76923 4.46436 3.2469 4.98669 2.60256 4.98669C2.53116 4.98669 2.46268 5.01506 2.41219 5.06555C2.3617 5.11604 2.33333 5.18452 2.33333 5.25592V7.67786H18.6667V5.25592C18.6667 5.18452 18.6383 5.11604 18.5878 5.06555C18.5373 5.01506 18.4688 4.98669 18.3974 4.98669H16.6928V5.97436C16.6928 6.61869 16.1704 7.14103 15.5261 7.14103C14.8818 7.14103 14.3594 6.61869 14.3594 5.97436V3.85361C14.3591 3.84245 14.359 3.83126 14.359 3.82002C14.359 3.80879 14.3591 3.7976 14.3594 3.78644V1.66667C14.3594 1.02233 14.8818 0.5 15.5261 0.5C16.1704 0.5 16.6928 1.02233 16.6928 1.66667V2.65336H18.3974C19.0877 2.65336 19.7497 2.92756 20.2377 3.41563C20.7258 3.90371 21 4.56568 21 5.25592V8.84453V18.8969C21 19.5872 20.7258 20.2492 20.2377 20.7372C19.7497 21.2253 19.0877 21.4995 18.3974 21.4995H2.60256C1.91232 21.4995 1.25035 21.2253 0.762273 20.7372C0.274198 20.2492 0 19.5872 0 18.8969V8.84453V5.25592C0 4.56568 0.274198 3.90371 0.762273 3.41563ZM2.33333 18.8969V10.0112H18.6667V18.8969C18.6667 18.9684 18.6383 19.0368 18.5878 19.0873C18.5373 19.1378 18.4688 19.1662 18.3974 19.1662H2.60256C2.53116 19.1662 2.46268 19.1378 2.41219 19.0873C2.3617 19.0368 2.33333 18.9684 2.33333 18.8969Z" fill="#101014"/>
</svg>
