<svg width="12" height="12" viewBox="0 0 12 12" fill="none" xmlns="http://www.w3.org/2000/svg">
<path fill-rule="evenodd" clip-rule="evenodd" d="M0 4.78543V6.24514C0 7.07486 1.34035 7.77257 3.13641 7.92686V5.75486L3.13901 5.652C2.14196 5.58171 1.23398 5.37171 0.522303 5.05714C0.342332 4.97812 0.167848 4.88735 0 4.78543ZM7.78266 1.71429V2.97429C6.71384 3.00943 5.70988 3.21429 4.91778 3.564C4.48368 3.75514 4.06514 4.01143 3.74 4.34914C3.6665 4.42629 3.59473 4.51029 3.529 4.60029C2.50256 4.56257 1.60669 4.36286 0.963321 4.07829C0.603589 3.91971 0.345896 3.744 0.185919 3.57686C0.0996953 3.49445 0.0357618 3.39188 0 3.27857V1.71429C0 0.767143 1.74159 0 3.89133 0C6.04021 0 7.78266 0.767143 7.78266 1.71429ZM3.89133 2.51229C5.39166 2.51229 6.60834 2.166 6.60834 1.73829C6.60834 1.30971 5.39166 0.963429 3.89047 0.963429C2.39014 0.963429 1.17345 1.31057 1.17345 1.73829C1.17345 2.166 2.39101 2.51229 3.89133 2.51229ZM4.21734 10.2857V8.826C4.37991 8.92543 4.55545 9.01629 4.74051 9.09771C5.62686 9.49029 6.81588 9.71914 8.10867 9.71914C9.40059 9.71914 10.5905 9.49029 11.4768 9.09771C11.6619 9.01629 11.8374 8.92629 12 8.826V10.2857C12 11.2286 10.2705 12 8.10867 12C5.94682 12 4.21734 11.2286 4.21734 10.2857ZM4.40412 7.61743C4.31771 7.53536 4.25348 7.43309 4.21734 7.32V5.75486C4.21734 4.80857 5.95979 4.04057 8.10867 4.04057C10.2575 4.04057 12 4.80857 12 5.75486V7.32C11.964 7.43341 11.8998 7.536 11.8132 7.61829C11.6532 7.78543 11.3964 7.96114 11.0367 8.12057C10.3189 8.43771 9.28558 8.64857 8.10867 8.64857C6.93176 8.64857 5.89926 8.43771 5.18066 8.12057C4.82093 7.96114 4.5641 7.78543 4.40412 7.61743ZM10.8257 5.77886C10.8257 6.20743 9.60899 6.55371 8.10867 6.55371C6.60748 6.55371 5.39166 6.20657 5.39166 5.77886C5.39166 5.35114 6.60748 5.004 8.10867 5.004C9.60899 5.004 10.8257 5.35114 10.8257 5.77886Z" fill="#606060"/>
</svg>
