<svg width="12" height="14" viewBox="0 0 12 14" fill="none" xmlns="http://www.w3.org/2000/svg">
<path d="M7.84645 9.625L7.66205 9.8554C7.91139 9.88585 8.15272 9.92155 8.37872 9.9648L7.64819 10.1835L8.62326 10.4455L9.35007 10.2139C9.79647 10.3652 10.4146 10.5502 10.6194 10.7605H9.16206L9.30687 11.1884H10.8191C10.8146 11.4296 10.3879 11.6255 9.98047 11.7842L8.947 11.5584L7.97326 11.911L9.01326 12.1509C8.40606 12.3179 7.38658 12.4195 6.54258 12.4663L6.50711 11.9758H5.49297L5.45737 12.4663C4.61336 12.4195 3.59402 12.3181 2.98668 12.151L4.02682 11.911L3.05308 11.5584L2.01947 11.7842C1.61787 11.661 1.18546 11.4296 1.18093 11.1884H2.69334L2.83814 10.7605H1.3808C1.5856 10.5502 2.20374 10.3652 2.65014 10.2139L3.37695 10.4455L4.35202 10.1835L3.62148 9.9648C3.85741 9.92073 4.09469 9.88447 4.33296 9.85607L4.15122 9.62527C2.17987 9.83236 0.541459 10.2733 0.111855 10.9698C-0.57335 12.0797 1.9544 13.1963 5.91604 13.2136C5.97497 13.2166 6.03311 13.2144 6.08804 13.2136C10.0474 13.1953 12.5729 12.0792 11.8882 10.9698C11.4584 10.2731 9.819 9.83195 7.84645 9.625Z" fill="#606060"/>
<path d="M6.75781 2.12441C7.42448 1.44535 6.94981 0.28125 6.00047 0.28125C5.71757 0.28125 5.44626 0.394811 5.24622 0.596951C5.04618 0.79909 4.9338 1.07325 4.9338 1.35912C4.9338 2.31842 6.08581 2.79807 6.75781 2.12441Z" fill="#606060"/>
<path d="M6.80048 2.97592H5.20046C4.91756 2.97592 4.64625 3.08948 4.44621 3.29162C4.24617 3.49376 4.13379 3.76792 4.13379 4.05379V7.01793H4.9338V11.0599H7.06715V7.01793H7.86715V4.05379C7.86715 3.76792 7.75477 3.49376 7.55473 3.29162C7.35469 3.08948 7.08338 2.97592 6.80048 2.97592Z" fill="#606060"/>
</svg>
