<svg width="40" height="40" viewBox="0 0 40 40" fill="none" xmlns="http://www.w3.org/2000/svg">
<g filter="url(#filter0_d_243_6568)">
<circle cx="20" cy="19" r="15" fill="white"/>
</g>
<path fill-rule="evenodd" clip-rule="evenodd" d="M19.8889 10.7773C17.7376 10.7773 15.6744 11.632 14.1532 13.1532C12.632 14.6744 11.7773 16.7376 11.7773 18.8889C11.7773 21.0402 12.632 23.1034 14.1532 24.6246C15.6744 26.1458 17.7376 27.0004 19.8889 27.0004C20.9541 27.0004 22.0089 26.7906 22.993 26.383C23.9772 25.9753 24.8714 25.3778 25.6246 24.6246C26.3778 23.8714 26.9753 22.9772 27.383 21.993C27.7906 21.0089 28.0004 19.9541 28.0004 18.8889C28.0004 17.8237 27.7906 16.7689 27.383 15.7847C26.9753 14.8006 26.3778 13.9064 25.6246 13.1532C24.8714 12.3999 23.9772 11.8024 22.993 11.3948C22.0089 10.9872 20.9541 10.7773 19.8889 10.7773ZM15.118 14.118C16.2215 13.0146 17.6678 12.3328 19.2066 12.1765V14.1128C19.2066 14.4896 19.5121 14.7951 19.8889 14.7951C20.2657 14.7951 20.5712 14.4896 20.5712 14.1128V12.1765C21.2231 12.2428 21.8632 12.4038 22.4708 12.6555C23.2894 12.9946 24.0332 13.4915 24.6597 14.118C25.2862 14.7446 25.7832 15.4883 26.1223 16.3069C26.374 16.9146 26.535 17.5547 26.6013 18.2066H24.6648C24.288 18.2066 23.9826 18.5121 23.9826 18.8889C23.9826 19.2657 24.288 19.5712 24.6648 19.5712H26.6013C26.535 20.2231 26.374 20.8632 26.1223 21.4708C25.7832 22.2894 25.2862 23.0332 24.6597 23.6597C24.0332 24.2862 23.2894 24.7832 22.4708 25.1223C21.8632 25.374 21.2231 25.535 20.5712 25.6013V23.6648C20.5712 23.288 20.2657 22.9826 19.8889 22.9826C19.5121 22.9826 19.2066 23.288 19.2066 23.6648V25.6013C17.6678 25.445 16.2215 24.7632 15.118 23.6597C14.0146 22.5563 13.3328 21.11 13.1765 19.5712H15.1128C15.4896 19.5712 15.7951 19.2657 15.7951 18.8889C15.7951 18.5121 15.4896 18.2066 15.1128 18.2066H13.1765C13.3328 16.6678 14.0146 15.2215 15.118 14.118ZM19.8883 21.0109C21.0606 21.0109 22.0109 20.0606 22.0109 18.8883C22.0109 17.716 21.0606 16.7656 19.8883 16.7656C18.716 16.7656 17.7656 17.716 17.7656 18.8883C17.7656 20.0606 18.716 21.0109 19.8883 21.0109Z" fill="#FF7111"/>
<defs>
<filter id="filter0_d_243_6568" x="0" y="0" width="40" height="40" filterUnits="userSpaceOnUse" color-interpolation-filters="sRGB">
<feFlood flood-opacity="0" result="BackgroundImageFix"/>
<feColorMatrix in="SourceAlpha" type="matrix" values="0 0 0 0 0 0 0 0 0 0 0 0 0 0 0 0 0 0 127 0" result="hardAlpha"/>
<feOffset dy="1"/>
<feGaussianBlur stdDeviation="2.5"/>
<feComposite in2="hardAlpha" operator="out"/>
<feColorMatrix type="matrix" values="0 0 0 0 0.0627451 0 0 0 0 0.0627451 0 0 0 0 0.0784314 0 0 0 0.2 0"/>
<feBlend mode="normal" in2="BackgroundImageFix" result="effect1_dropShadow_243_6568"/>
<feBlend mode="normal" in="SourceGraphic" in2="effect1_dropShadow_243_6568" result="shape"/>
</filter>
</defs>
</svg>
