<svg width="16" height="17" viewBox="0 0 16 17" fill="none" xmlns="http://www.w3.org/2000/svg">
<path fill-rule="evenodd" clip-rule="evenodd" d="M4.92913 1.53683C4.92913 1.06344 4.54537 0.679688 4.07199 0.679688C3.5986 0.679688 3.21484 1.06344 3.21484 1.53683V3.14425V4.75112C3.21484 5.2245 3.5986 5.60826 4.07199 5.60826C4.54537 5.60826 4.92913 5.2245 4.92913 4.75112V4.0014H9.42913C9.90252 4.0014 10.2863 3.61764 10.2863 3.14425C10.2863 2.67087 9.90252 2.28711 9.42913 2.28711H4.92913V1.53683ZM0.564865 2.85197C0.926543 2.4903 1.41708 2.28711 1.92857 2.28711C2.40196 2.28711 2.78571 2.67087 2.78571 3.14425C2.78571 3.61764 2.40196 4.0014 1.92857 4.0014C1.87174 4.0014 1.81723 4.02397 1.77705 4.06416C1.73686 4.10434 1.71429 4.15885 1.71429 4.21568V6.03711H13.9286V4.21568C13.9286 4.15885 13.906 4.10434 13.8658 4.06416C13.8256 4.02397 13.7711 4.0014 13.7143 4.0014H12.4291V4.75112C12.4291 5.2245 12.0454 5.60826 11.572 5.60826C11.0986 5.60826 10.7148 5.2245 10.7148 4.75112V3.1755C10.7145 3.16513 10.7143 3.15471 10.7143 3.14425C10.7143 3.13379 10.7145 3.12338 10.7148 3.11301V1.53683C10.7148 1.06344 11.0986 0.679688 11.572 0.679688C12.0454 0.679688 12.4291 1.06344 12.4291 1.53683V2.28711H13.7143C14.2258 2.28711 14.7163 2.4903 15.078 2.85197C15.4397 3.21365 15.6429 3.70419 15.6429 4.21568V6.89425V14.3943C15.6429 14.9057 15.4397 15.3963 15.078 15.758C14.7163 16.1196 14.2258 16.3228 13.7143 16.3228H1.92857C1.41708 16.3228 0.926542 16.1196 0.564865 15.758C0.203188 15.3963 0 14.9057 0 14.3943V6.89425V4.21568C0 3.70419 0.203188 3.21365 0.564865 2.85197ZM1.71429 14.3943V7.7514H13.9286V14.3943C13.9286 14.4511 13.906 14.5056 13.8658 14.5458C13.8256 14.586 13.7711 14.6085 13.7143 14.6085H1.92857C1.87174 14.6085 1.81724 14.586 1.77705 14.5458C1.73686 14.5056 1.71429 14.4511 1.71429 14.3943Z" fill="#606060"/>
</svg>
