<svg width="15" height="17" viewBox="0 0 15 17" fill="none" xmlns="http://www.w3.org/2000/svg">
<path d="M4.90039 1.86844C4.6617 1.86844 4.43278 1.96675 4.26399 2.14174C4.09521 2.31672 4.00039 2.55406 4.00039 2.80152C4.00039 3.04899 4.09521 3.28632 4.26399 3.46131C4.43278 3.6363 4.6617 3.7346 4.90039 3.7346C5.13909 3.7346 5.368 3.6363 5.53679 3.46131C5.70557 3.28632 5.80039 3.04899 5.80039 2.80152C5.80039 2.55406 5.70557 2.31672 5.53679 2.14174C5.368 1.96675 5.13909 1.86844 4.90039 1.86844ZM2.35339 1.86844C2.53933 1.3221 2.88416 0.848994 3.34033 0.514351C3.7965 0.179707 4.34157 0 4.90039 0C5.45921 0 6.00428 0.179707 6.46045 0.514351C6.91663 0.848994 7.26145 1.3221 7.44739 1.86844H13.9004C14.1391 1.86844 14.368 1.96675 14.5368 2.14174C14.7056 2.31672 14.8004 2.55406 14.8004 2.80152C14.8004 3.04899 14.7056 3.28632 14.5368 3.46131C14.368 3.6363 14.1391 3.7346 13.9004 3.7346H7.44739C7.26145 4.28095 6.91663 4.75405 6.46045 5.0887C6.00428 5.42334 5.45921 5.60305 4.90039 5.60305C4.34157 5.60305 3.7965 5.42334 3.34033 5.0887C2.88416 4.75405 2.53933 4.28095 2.35339 3.7346H1.30039C1.0617 3.7346 0.832777 3.6363 0.663995 3.46131C0.495212 3.28632 0.400391 3.04899 0.400391 2.80152C0.400391 2.55406 0.495212 2.31672 0.663995 2.14174C0.832777 1.96675 1.0617 1.86844 1.30039 1.86844H2.35339ZM10.3004 7.46692C10.0617 7.46692 9.83278 7.56523 9.66399 7.74021C9.49521 7.9152 9.40039 8.15253 9.40039 8.4C9.40039 8.64747 9.49521 8.8848 9.66399 9.05979C9.83278 9.23477 10.0617 9.33308 10.3004 9.33308C10.5391 9.33308 10.768 9.23477 10.9368 9.05979C11.1056 8.8848 11.2004 8.64747 11.2004 8.4C11.2004 8.15253 11.1056 7.9152 10.9368 7.74021C10.768 7.56523 10.5391 7.46692 10.3004 7.46692ZM7.75339 7.46692C7.93933 6.92057 8.28416 6.44747 8.74033 6.11283C9.1965 5.77818 9.74157 5.59847 10.3004 5.59847C10.8592 5.59847 11.4043 5.77818 11.8605 6.11283C12.3166 6.44747 12.6614 6.92057 12.8474 7.46692H13.9004C14.1391 7.46692 14.368 7.56523 14.5368 7.74021C14.7056 7.9152 14.8004 8.15253 14.8004 8.4C14.8004 8.64747 14.7056 8.8848 14.5368 9.05979C14.368 9.23477 14.1391 9.33308 13.9004 9.33308H12.8474C12.6614 9.87943 12.3166 10.3525 11.8605 10.6872C11.4043 11.0218 10.8592 11.2015 10.3004 11.2015C9.74157 11.2015 9.1965 11.0218 8.74033 10.6872C8.28416 10.3525 7.93933 9.87943 7.75339 9.33308H1.30039C1.0617 9.33308 0.832777 9.23477 0.663995 9.05979C0.495212 8.8848 0.400391 8.64747 0.400391 8.4C0.400391 8.15253 0.495212 7.9152 0.663995 7.74021C0.832777 7.56523 1.0617 7.46692 1.30039 7.46692H7.75339ZM4.90039 13.0654C4.6617 13.0654 4.43278 13.1637 4.26399 13.3387C4.09521 13.5137 4.00039 13.751 4.00039 13.9985C4.00039 14.2459 4.09521 14.4833 4.26399 14.6583C4.43278 14.8332 4.6617 14.9316 4.90039 14.9316C5.13909 14.9316 5.368 14.8332 5.53679 14.6583C5.70557 14.4833 5.80039 14.2459 5.80039 13.9985C5.80039 13.751 5.70557 13.5137 5.53679 13.3387C5.368 13.1637 5.13909 13.0654 4.90039 13.0654ZM2.35339 13.0654C2.53933 12.519 2.88416 12.0459 3.34033 11.7113C3.7965 11.3767 4.34157 11.197 4.90039 11.197C5.45921 11.197 6.00428 11.3767 6.46045 11.7113C6.91663 12.0459 7.26145 12.519 7.44739 13.0654H13.9004C14.1391 13.0654 14.368 13.1637 14.5368 13.3387C14.7056 13.5137 14.8004 13.751 14.8004 13.9985C14.8004 14.2459 14.7056 14.4833 14.5368 14.6583C14.368 14.8332 14.1391 14.9316 13.9004 14.9316H7.44739C7.26145 15.4779 6.91663 15.951 6.46045 16.2856C6.00428 16.6203 5.45921 16.8 4.90039 16.8C4.34157 16.8 3.7965 16.6203 3.34033 16.2856C2.88416 15.951 2.53933 15.4779 2.35339 14.9316H1.30039C1.0617 14.9316 0.832777 14.8332 0.663995 14.6583C0.495212 14.4833 0.400391 14.2459 0.400391 13.9985C0.400391 13.751 0.495212 13.5137 0.663995 13.3387C0.832777 13.1637 1.0617 13.0654 1.30039 13.0654H2.35339Z" fill="#101014"/>
</svg>
