<svg width="14" height="14" viewBox="0 0 14 14" fill="none" xmlns="http://www.w3.org/2000/svg">
<path d="M7.07 13.5C6.87167 13.5 6.70553 13.4307 6.5716 13.292C6.43766 13.1533 6.37047 12.9819 6.37 12.7778C6.37 12.6935 6.3875 12.6061 6.4225 12.5156C6.4575 12.4251 6.51 12.344 6.58 12.2722L9.8175 8.93195L9.31 8.40834L6.09 11.7486C6.02 11.8208 5.94417 11.875 5.8625 11.9111C5.78083 11.9472 5.69333 11.9653 5.6 11.9653C5.40167 11.9653 5.2353 11.8962 5.1009 11.758C4.9665 11.6198 4.89953 11.4482 4.9 11.2431C4.9 11.1227 4.9175 11.0233 4.9525 10.9448C4.9875 10.8663 5.03417 10.7972 5.0925 10.7375L8.33 7.39722L7.84 6.89167L4.6025 10.2139C4.5325 10.2861 4.45667 10.3403 4.375 10.3764C4.29333 10.4125 4.2 10.4306 4.095 10.4306C3.90833 10.4306 3.745 10.3583 3.605 10.2139C3.465 10.0694 3.395 9.90093 3.395 9.70833C3.395 9.61204 3.4125 9.52176 3.4475 9.4375C3.4825 9.35324 3.535 9.275 3.605 9.20278L6.8425 5.8625L6.335 5.35695L3.115 8.69722C3.05667 8.75741 2.98667 8.80556 2.905 8.84167C2.82333 8.87778 2.72417 8.89583 2.6075 8.89583C2.40917 8.89583 2.2428 8.8265 2.1084 8.68783C1.974 8.54917 1.90703 8.37776 1.9075 8.17361C1.9075 8.07732 1.925 7.98704 1.96 7.90278C1.995 7.81852 2.0475 7.74028 2.1175 7.66806L6.02 3.64167L8.645 6.36806C8.77333 6.50046 8.925 6.60591 9.1 6.68439C9.275 6.76287 9.45 6.80187 9.625 6.80139C9.99833 6.80139 10.325 6.66585 10.605 6.39478C10.885 6.12371 11.025 5.77776 11.025 5.35695C11.025 5.18843 10.9958 5.01389 10.9375 4.83334C10.8792 4.65278 10.7742 4.48426 10.6225 4.32778L7.49 1.09584C7.68833 0.903244 7.91 0.75567 8.155 0.653114C8.4 0.550559 8.645 0.499522 8.89 0.500003C9.19333 0.500003 9.47333 0.551281 9.73 0.653837C9.98666 0.756392 10.22 0.915763 10.43 1.13195L13.3875 4.20139C13.5975 4.41806 13.7522 4.6588 13.8516 4.92361C13.951 5.18843 14.0005 5.49537 14 5.84445C14 6.08519 13.9475 6.32882 13.8425 6.57534C13.7375 6.82185 13.5858 7.04767 13.3875 7.25278L7.56 13.2833C7.46666 13.3796 7.385 13.4398 7.315 13.4639C7.245 13.488 7.16333 13.5 7.07 13.5ZM1.0675 7.72222L0.6125 7.25278C0.414167 7.06019 0.2625 6.83148 0.1575 6.56667C0.0524999 6.30185 0 6.025 0 5.73611C0 5.42315 0.0583333 5.13426 0.175 4.86945C0.291667 4.60463 0.4375 4.38195 0.6125 4.20139L3.57 1.13195C3.75667 0.939355 3.97833 0.785763 4.235 0.67117C4.49167 0.556577 4.7425 0.499522 4.9875 0.500003C5.3025 0.500003 5.5825 0.545263 5.8275 0.635781C6.0725 0.7263 6.31167 0.891688 6.545 1.13195L10.1325 4.83334C10.2025 4.90556 10.255 4.9838 10.29 5.06806C10.325 5.15232 10.3425 5.2426 10.3425 5.33889C10.3425 5.53148 10.2725 5.7 10.1325 5.84445C9.9925 5.98889 9.82916 6.06111 9.6425 6.06111C9.5375 6.06111 9.45 6.04595 9.38 6.01561C9.31 5.98528 9.23416 5.92822 9.1525 5.84445L6.0025 2.63056L1.0675 7.72222Z" fill="white"/>
</svg>
