<svg width="23" height="24" viewBox="0 0 23 24" fill="none" xmlns="http://www.w3.org/2000/svg">
<g filter="url(#filter0_i_243_4109)">
<path d="M20.0183 9.59169L19.8413 9.64575V9.83079V21.4889H2.52291V6.37635H4.18202H4.43202V6.12635V4.70703V4.45703H4.18202H2.11381V4.45699L2.10915 4.45707C1.92354 4.46053 1.74123 4.50476 1.57285 4.58626C1.40457 4.6677 1.2542 4.78441 1.1295 4.92825C1.00483 5.07203 0.907994 5.24037 0.843353 5.42309C0.778935 5.60517 0.747432 5.79885 0.750164 5.99335V21.8719C0.747432 22.0664 0.778935 22.2601 0.843353 22.4422C0.907994 22.6249 1.00483 22.7932 1.1295 22.937L1.31839 22.7733L1.1295 22.937C1.25421 23.0809 1.40457 23.1976 1.57284 23.279C1.74123 23.3605 1.92354 23.4047 2.10916 23.4082L2.10916 23.4082H2.11381H20.2504V23.4083L20.255 23.4082C20.4407 23.4047 20.623 23.3605 20.7914 23.279L20.6824 23.054L20.7914 23.279C20.9596 23.1976 21.11 23.0809 21.2347 22.937C21.3594 22.7932 21.4562 22.6249 21.5208 22.4422C21.5853 22.2601 21.6168 22.0664 21.614 21.8719V9.20629V8.72543L21.2204 9.00165C20.847 9.2637 20.4419 9.4623 20.0183 9.59169Z" fill="#101014" stroke="#101014" stroke-width="0.5"/>
<path d="M4.81836 10.1367H4.56836V10.3867V11.806V12.056H4.81836H6.0911H6.3411V11.806V10.3867V10.1367H6.0911H4.81836Z" fill="#101014" stroke="#101014" stroke-width="0.5"/>
<path d="M8.63672 10.1367H8.38672V10.3867V11.806V12.056H8.63672H9.90946H10.1595V11.806V10.3867V10.1367H9.90946H8.63672Z" fill="#101014" stroke="#101014" stroke-width="0.5"/>
<path d="M12.4551 10.1367H12.2051V10.3867V11.806V12.056H12.4551H13.7278H13.9778V11.806V10.3867V10.1367H13.7278H12.4551Z" fill="#101014" stroke="#101014" stroke-width="0.5"/>
<path d="M16.2734 10.1367H16.0234V10.3867V11.806V12.056H16.2734H17.5462H17.7962V11.806V10.3867V10.1367H17.5462H16.2734Z" fill="#101014" stroke="#101014" stroke-width="0.5"/>
<path d="M4.81836 13.6836H4.56836V13.9336V15.3529V15.6029H4.81836H6.0911H6.3411V15.3529V13.9336V13.6836H6.0911H4.81836Z" fill="#101014" stroke="#101014" stroke-width="0.5"/>
<path d="M8.63672 13.6836H8.38672V13.9336V15.3529V15.6029H8.63672H9.90946H10.1595V15.3529V13.9336V13.6836H9.90946H8.63672Z" fill="#101014" stroke="#101014" stroke-width="0.5"/>
<path d="M12.4551 13.6836H12.2051V13.9336V15.3529V15.6029H12.4551H13.7278H13.9778V15.3529V13.9336V13.6836H13.7278H12.4551Z" fill="#101014" stroke="#101014" stroke-width="0.5"/>
<path d="M16.2734 13.6836H16.0234V13.9336V15.3529V15.6029H16.2734H17.5462H17.7962V15.3529V13.9336V13.6836H17.5462H16.2734Z" fill="#101014" stroke="#101014" stroke-width="0.5"/>
<path d="M4.81836 17.2344H4.56836V17.4844V18.9037V19.1537H4.81836H6.0911H6.3411V18.9037V17.4844V17.2344H6.0911H4.81836Z" fill="#101014" stroke="#101014" stroke-width="0.5"/>
<path d="M8.63672 17.2344H8.38672V17.4844V18.9037V19.1537H8.63672H9.90946H10.1595V18.9037V17.4844V17.2344H9.90946H8.63672Z" fill="#101014" stroke="#101014" stroke-width="0.5"/>
<path d="M12.4551 17.2344H12.2051V17.4844V18.9037V19.1537H12.4551H13.7278H13.9778V18.9037V17.4844V17.2344H13.7278H12.4551Z" fill="#101014" stroke="#101014" stroke-width="0.5"/>
<path d="M16.2734 17.2344H16.0234V17.4844V18.9037V19.1537H16.2734H17.5462H17.7962V18.9037V17.4844V17.2344H17.5462H16.2734Z" fill="#101014" stroke="#101014" stroke-width="0.5"/>
<path d="M5.45339 7.50744L5.45339 7.50744C5.61698 7.68987 5.84508 7.79839 6.0895 7.79839C6.33392 7.79839 6.56201 7.68987 6.7256 7.50744L6.53948 7.34053L6.7256 7.50744C6.88839 7.3259 6.97587 7.08498 6.97587 6.83873V2.58076C6.97587 2.3345 6.88839 2.09358 6.7256 1.91204C6.56201 1.72961 6.33392 1.62109 6.0895 1.62109C5.84508 1.62109 5.61698 1.72961 5.45339 1.91204C5.2906 2.09358 5.20312 2.3345 5.20312 2.58076V6.83873C5.20312 7.08498 5.2906 7.3259 5.45339 7.50744Z" fill="#101014" stroke="#101014" stroke-width="0.5"/>
<path d="M14.2955 4.70616L14.2947 4.45703H14.0455H8H7.75V4.70703V6.12636V6.37636H8H14.2237H14.5446L14.4661 6.06518C14.3545 5.62308 14.2971 5.16589 14.2955 4.70616Z" fill="#101014" stroke="#101014" stroke-width="0.5"/>
<path d="M18.8186 8.50678C20.7389 8.50678 22.2504 6.77989 22.2504 4.70847C22.2504 2.63704 20.7389 0.910156 18.8186 0.910156C16.8983 0.910156 15.3867 2.63704 15.3867 4.70847C15.3867 6.77989 16.8983 8.50678 18.8186 8.50678Z" fill="#101014" stroke="#101014" stroke-width="0.5"/>
</g>
<defs>
<filter id="filter0_i_243_4109" x="0.5" y="0.660156" width="22" height="27" filterUnits="userSpaceOnUse" color-interpolation-filters="sRGB">
<feFlood flood-opacity="0" result="BackgroundImageFix"/>
<feBlend mode="normal" in="SourceGraphic" in2="BackgroundImageFix" result="shape"/>
<feColorMatrix in="SourceAlpha" type="matrix" values="0 0 0 0 0 0 0 0 0 0 0 0 0 0 0 0 0 0 127 0" result="hardAlpha"/>
<feOffset dy="4"/>
<feGaussianBlur stdDeviation="2"/>
<feComposite in2="hardAlpha" operator="arithmetic" k2="-1" k3="1"/>
<feColorMatrix type="matrix" values="0 0 0 0 0 0 0 0 0 0 0 0 0 0 0 0 0 0 0.25 0"/>
<feBlend mode="normal" in2="shape" result="effect1_innerShadow_243_4109"/>
</filter>
</defs>
</svg>
