<svg width="15" height="14" viewBox="0 0 15 14" fill="none" xmlns="http://www.w3.org/2000/svg">
<path d="M7.575 13.5C7.3625 13.5 7.1845 13.4307 7.041 13.292C6.8975 13.1533 6.8255 12.9819 6.825 12.7778C6.825 12.6935 6.84375 12.6061 6.88125 12.5156C6.91875 12.4251 6.975 12.344 7.05 12.2722L10.5187 8.93195L9.975 8.40834L6.525 11.7486C6.45 11.8208 6.36875 11.875 6.28125 11.9111C6.19375 11.9472 6.1 11.9653 6 11.9653C5.7875 11.9653 5.60925 11.8962 5.46525 11.758C5.32125 11.6198 5.2495 11.4482 5.25 11.2431C5.25 11.1227 5.26875 11.0233 5.30625 10.9448C5.34375 10.8663 5.39375 10.7972 5.45625 10.7375L8.925 7.39722L8.4 6.89167L4.93125 10.2139C4.85625 10.2861 4.775 10.3403 4.6875 10.3764C4.6 10.4125 4.5 10.4306 4.3875 10.4306C4.1875 10.4306 4.0125 10.3583 3.8625 10.2139C3.7125 10.0694 3.6375 9.90093 3.6375 9.70833C3.6375 9.61204 3.65625 9.52176 3.69375 9.4375C3.73125 9.35324 3.7875 9.275 3.8625 9.20278L7.33125 5.8625L6.7875 5.35695L3.3375 8.69722C3.275 8.75741 3.2 8.80556 3.1125 8.84167C3.025 8.87778 2.91875 8.89583 2.79375 8.89583C2.58125 8.89583 2.403 8.8265 2.259 8.68783C2.115 8.54917 2.04325 8.37776 2.04375 8.17361C2.04375 8.07732 2.0625 7.98704 2.1 7.90278C2.1375 7.81852 2.19375 7.74028 2.26875 7.66806L6.45 3.64167L9.2625 6.36806C9.4 6.50047 9.5625 6.60591 9.75 6.68439C9.9375 6.76287 10.125 6.80187 10.3125 6.80139C10.7125 6.80139 11.0625 6.66585 11.3625 6.39478C11.6625 6.12371 11.8125 5.77776 11.8125 5.35695C11.8125 5.18843 11.7812 5.01389 11.7187 4.83334C11.6562 4.65278 11.5437 4.48426 11.3812 4.32778L8.025 1.09584C8.2375 0.903244 8.475 0.75567 8.7375 0.653114C9 0.550559 9.2625 0.499522 9.525 0.500003C9.85 0.500003 10.15 0.551281 10.425 0.653837C10.7 0.756392 10.95 0.915763 11.175 1.13195L14.3437 4.20139C14.5687 4.41806 14.7345 4.6588 14.841 4.92361C14.9475 5.18843 15.0005 5.49537 15 5.84445C15 6.08519 14.9437 6.32882 14.8312 6.57534C14.7187 6.82185 14.5562 7.04767 14.3437 7.25278L8.1 13.2833C8 13.3796 7.9125 13.4398 7.8375 13.4639C7.7625 13.488 7.675 13.5 7.575 13.5ZM1.14375 7.72222L0.65625 7.25278C0.44375 7.06019 0.28125 6.83148 0.16875 6.56667C0.0562499 6.30185 0 6.025 0 5.73611C0 5.42315 0.0625 5.13426 0.1875 4.86945C0.3125 4.60463 0.46875 4.38195 0.65625 4.20139L3.825 1.13195C4.025 0.939355 4.2625 0.785763 4.5375 0.67117C4.8125 0.556577 5.08125 0.499522 5.34375 0.500003C5.68125 0.500003 5.98125 0.545263 6.24375 0.635781C6.50625 0.7263 6.7625 0.891688 7.0125 1.13195L10.8562 4.83334C10.9312 4.90556 10.9875 4.9838 11.025 5.06806C11.0625 5.15232 11.0812 5.2426 11.0812 5.33889C11.0812 5.53148 11.0062 5.7 10.8562 5.84445C10.7062 5.98889 10.5312 6.06111 10.3312 6.06111C10.2187 6.06111 10.125 6.04595 10.05 6.01561C9.975 5.98528 9.89375 5.92822 9.80625 5.84445L6.43125 2.63056L1.14375 7.72222Z" fill="white"/>
</svg>
