<svg width="21" height="21" viewBox="0 0 21 21" fill="none" xmlns="http://www.w3.org/2000/svg">
<path fill-rule="evenodd" clip-rule="evenodd" d="M10.4995 2.29687C7.60755 2.29687 5.17383 4.7306 5.17383 7.62259C5.17383 8.42676 5.48071 9.35099 6.03793 10.3416C6.58918 11.3216 7.33976 12.2861 8.1161 13.1486C8.8891 14.0075 9.66583 14.7415 10.2509 15.2616C10.3385 15.3394 10.4216 15.4123 10.4995 15.4799C10.5775 15.4123 10.6606 15.3394 10.7482 15.2616C11.3333 14.7415 12.11 14.0075 12.883 13.1486C13.6593 12.2861 14.4099 11.3216 14.9612 10.3416C15.5184 9.35099 15.8253 8.42676 15.8253 7.62259C15.8253 4.7306 13.3915 2.29687 10.4995 2.29687ZM10.4995 16.9742C9.79448 17.8807 9.79427 17.8805 9.79403 17.8803L9.79182 17.8786L9.78681 17.8747L9.76988 17.8614L9.70942 17.8133C9.65769 17.7719 9.58359 17.712 9.49031 17.6351C9.30384 17.4811 9.04018 17.2584 8.72498 16.9783C8.09619 16.4193 7.25438 15.6247 6.40884 14.6852C5.56664 13.7494 4.69868 12.6457 4.03603 11.4677C3.37934 10.3002 2.87695 8.97648 2.87695 7.62259C2.87695 3.46207 6.33903 0 10.4995 0C14.6601 0 18.1221 3.46207 18.1221 7.62259C18.1221 8.97648 17.6198 10.3002 16.9631 11.4677C16.3004 12.6457 15.4325 13.7494 14.5903 14.6852C13.7447 15.6247 12.9029 16.4193 12.2741 16.9783C11.9589 17.2584 11.6953 17.4811 11.5088 17.6351C11.4155 17.712 11.3414 17.7719 11.2897 17.8133L11.2292 17.8614L11.2123 17.8747L11.2073 17.8786L11.2057 17.8799C11.2054 17.8801 11.2046 17.8807 10.4995 16.9742ZM10.4995 16.9742L11.2057 17.8799C10.7909 18.2024 10.2087 18.2029 9.79403 17.8803L10.4995 16.9742Z" fill="#101014"/>
<path fill-rule="evenodd" clip-rule="evenodd" d="M8.16181 5.28485C8.78189 4.66477 9.62291 4.31641 10.4998 4.31641C11.3768 4.31641 12.2178 4.66477 12.8379 5.28485C13.458 5.90494 13.8063 6.74596 13.8063 7.6229C13.8063 8.49983 13.458 9.34085 12.8379 9.96094C12.2178 10.581 11.3768 10.9294 10.4998 10.9294C9.62291 10.9294 8.78189 10.581 8.16181 9.96094C7.54172 9.34085 7.19336 8.49983 7.19336 7.6229C7.19336 6.74596 7.54172 5.90494 8.16181 5.28485ZM10.4998 6.61328C10.2321 6.61328 9.97528 6.71965 9.78594 6.90899C9.5966 7.09833 9.49023 7.35513 9.49023 7.6229C9.49023 7.89066 9.5966 8.14746 9.78594 8.3368C9.97528 8.52614 10.2321 8.63251 10.4998 8.63251C10.7676 8.63251 11.0244 8.52614 11.2138 8.3368C11.4031 8.14746 11.5095 7.89066 11.5095 7.6229C11.5095 7.35513 11.4031 7.09833 11.2138 6.90899C11.0244 6.71965 10.7676 6.61328 10.4998 6.61328Z" fill="#101014"/>
<path fill-rule="evenodd" clip-rule="evenodd" d="M2.25091 14.364C2.43188 13.9418 2.84709 13.668 3.30649 13.668H4.63442C5.26868 13.668 5.78285 14.1821 5.78285 14.8164C5.78285 15.4507 5.26868 15.9648 4.63442 15.9648H4.06377L2.89009 18.7034H18.1099L16.9362 15.9648H16.3656C15.7313 15.9648 15.2172 15.4507 15.2172 14.8164C15.2172 14.1821 15.7313 13.668 16.3656 13.668H17.6935C18.1529 13.668 18.5681 13.9418 18.7491 14.364L20.9071 19.3995C21.0592 19.7543 21.0228 20.1618 20.8103 20.4841C20.5978 20.8063 20.2376 21.0003 19.8516 21.0003H1.14844C0.762402 21.0003 0.40219 20.8063 0.189679 20.4841C-0.0228324 20.1618 -0.0592074 19.7543 0.0928609 19.3995L2.25091 14.364Z" fill="#101014"/>
</svg>
