<svg width="11" height="12" viewBox="0 0 11 12" fill="none" xmlns="http://www.w3.org/2000/svg">
<path d="M2.08108 0C3.13946 0 3.66865 1.296 2.92541 2.052C2.17622 2.802 0.891892 2.268 0.891892 1.2C0.891892 0.88174 1.01718 0.576515 1.2402 0.351472C1.46321 0.126428 1.76569 0 2.08108 0ZM1.18919 3H2.97297C3.28837 3 3.59084 3.12643 3.81386 3.35147C4.03687 3.57652 4.16216 3.88174 4.16216 4.2V7.5H3.27027V12H0.891892V7.5H0V4.2C0 3.88174 0.125289 3.57652 0.348305 3.35147C0.571322 3.12643 0.873797 3 1.18919 3ZM9.21622 3.6H10.4054L8.62162 1.2L6.83784 3.6H8.02703V8.4H6.83784L8.62162 10.8L10.4054 8.4H9.21622M11 0H6.24324V1.2H11M11 10.8H6.24324V12H11" fill="#606060"/>
</svg>
