<svg width="21" height="21" viewBox="0 0 21 21" fill="none" xmlns="http://www.w3.org/2000/svg">
<path d="M17.2175 17.2175C15.4359 18.9991 13.0196 20 10.5 20C7.98044 20 5.56408 18.9991 3.78249 17.2175C2.00089 15.4359 1 13.0196 1 10.5C1 7.98044 2.00089 5.56408 3.78249 3.78249C5.56408 2.00089 7.98044 1 10.5 1C13.0196 1 15.4359 2.00089 17.2175 3.78249C18.9991 5.56408 20 7.98044 20 10.5C20 13.0196 18.9991 15.4359 17.2175 17.2175Z" stroke="black" stroke-width="2" stroke-linecap="round" stroke-linejoin="round"/>
<path d="M13.2468 7.62358C13.0985 7.2032 12.8234 6.83924 12.4593 6.58199C12.0953 6.32474 11.6604 6.18689 11.2146 6.1875H9.54754C9.07289 6.18672 8.61473 6.36158 8.26129 6.67839C7.90785 6.99521 7.68412 7.43159 7.63318 7.9035C7.58224 8.37541 7.70769 8.84948 7.98537 9.23442C8.26306 9.61937 8.67335 9.88797 9.13723 9.9885L11.675 10.5442C12.1938 10.658 12.6523 10.9595 12.9625 11.3907C13.2727 11.8219 13.4127 12.3525 13.3556 12.8806C13.2985 13.4087 13.0484 13.8971 12.6533 14.2521C12.2581 14.6071 11.7458 14.8036 11.2146 14.804H9.78015C9.33432 14.804 8.89945 14.6657 8.53549 14.4082C8.17153 14.1507 7.89639 13.7867 7.748 13.3663" stroke="black" stroke-width="2" stroke-linecap="round" stroke-linejoin="round"/>
<path d="M10.5 6.19628V4.04297" stroke="black" stroke-width="2" stroke-linecap="round" stroke-linejoin="round"/>
<path d="M10.5 16.9596V14.8047" stroke="black" stroke-width="2" stroke-linecap="round" stroke-linejoin="round"/>
</svg>
