<svg width="17" height="20" viewBox="0 0 17 20" fill="none" xmlns="http://www.w3.org/2000/svg">
<mask id="path-1-inside-1_243_2601" fill="white">
<path d="M17 16.1905V17.1429H0V16.1905L1.88889 14.2857V8.57143C1.88889 5.61905 3.80611 3.01905 6.61111 2.18095V1.90476C6.61111 1.39959 6.81012 0.915104 7.16435 0.557892C7.51859 0.20068 7.99904 0 8.5 0C9.00096 0 9.48141 0.20068 9.83565 0.557892C10.1899 0.915104 10.3889 1.39959 10.3889 1.90476V2.18095C13.1939 3.01905 15.1111 5.61905 15.1111 8.57143V14.2857L17 16.1905ZM10.3889 18.0952C10.3889 18.6004 10.1899 19.0849 9.83565 19.4421C9.48141 19.7993 9.00096 20 8.5 20C7.99904 20 7.51859 19.7993 7.16435 19.4421C6.81012 19.0849 6.61111 18.6004 6.61111 18.0952"/>
</mask>
<path d="M17 16.1905H18.6V15.5317L18.1361 15.0638L17 16.1905ZM17 17.1429V18.7429H18.6V17.1429H17ZM0 17.1429H-1.6V18.7429H0V17.1429ZM0 16.1905L-1.13609 15.0638L-1.6 15.5317V16.1905H0ZM1.88889 14.2857L3.02498 15.4123L3.48889 14.9445V14.2857H1.88889ZM6.61111 2.18095L7.06916 3.71399L8.21111 3.37279V2.18095H6.61111ZM8.5 0V-1.6V0ZM10.3889 2.18095H8.78889V3.37279L9.93084 3.71399L10.3889 2.18095ZM15.1111 14.2857H13.5111V14.9445L13.975 15.4123L15.1111 14.2857ZM15.4 16.1905V17.1429H18.6V16.1905H15.4ZM17 15.5429H0V18.7429H17V15.5429ZM1.6 17.1429V16.1905H-1.6V17.1429H1.6ZM1.13609 17.3171L3.02498 15.4123L0.752794 13.1591L-1.13609 15.0638L1.13609 17.3171ZM3.48889 14.2857V8.57143H0.288889V14.2857H3.48889ZM3.48889 8.57143C3.48889 6.31527 4.95228 4.34648 7.06916 3.71399L6.15306 0.647919C2.65994 1.69162 0.288889 4.92283 0.288889 8.57143H3.48889ZM8.21111 2.18095V1.90476H5.01111V2.18095H8.21111ZM8.21111 1.90476C8.21111 1.81963 8.24477 1.74066 8.30045 1.68452L6.02826 -0.568735C5.37547 0.089544 5.01111 0.979541 5.01111 1.90476H8.21111ZM8.30045 1.68452C8.35568 1.62883 8.42772 1.6 8.5 1.6V-1.6C7.57035 -1.6 6.6815 -1.22747 6.02826 -0.568735L8.30045 1.68452ZM8.5 1.6C8.57228 1.6 8.64432 1.62883 8.69955 1.68452L10.9717 -0.568735C10.3185 -1.22747 9.42965 -1.6 8.5 -1.6V1.6ZM8.69955 1.68452C8.75523 1.74066 8.78889 1.81963 8.78889 1.90476H11.9889C11.9889 0.979542 11.6245 0.0895448 10.9717 -0.568735L8.69955 1.68452ZM8.78889 1.90476V2.18095H11.9889V1.90476H8.78889ZM9.93084 3.71399C12.0477 4.34648 13.5111 6.31527 13.5111 8.57143H16.7111C16.7111 4.92283 14.3401 1.69162 10.8469 0.647919L9.93084 3.71399ZM13.5111 8.57143V14.2857H16.7111V8.57143H13.5111ZM13.975 15.4123L15.8639 17.3171L18.1361 15.0638L16.2472 13.1591L13.975 15.4123ZM8.78889 18.0952C8.78889 18.1804 8.75523 18.2593 8.69955 18.3155L10.9717 20.5687C11.6245 19.9105 11.9889 19.0205 11.9889 18.0952H8.78889ZM8.69955 18.3155C8.64432 18.3712 8.57228 18.4 8.5 18.4V21.6C9.42965 21.6 10.3185 21.2275 10.9717 20.5687L8.69955 18.3155ZM8.5 18.4C8.42772 18.4 8.35567 18.3712 8.30045 18.3155L6.02826 20.5687C6.6815 21.2275 7.57035 21.6 8.5 21.6V18.4ZM8.30045 18.3155C8.24477 18.2593 8.21111 18.1804 8.21111 18.0952H5.01111C5.01111 19.0205 5.37547 19.9105 6.02826 20.5687L8.30045 18.3155Z" fill="#101014" mask="url(#path-1-inside-1_243_2601)"/>
</svg>
