<svg width="12" height="13" viewBox="0 0 12 13" fill="none" xmlns="http://www.w3.org/2000/svg">
<path fill-rule="evenodd" clip-rule="evenodd" d="M6.0003 9.98077C5.5974 10.4988 5.59715 10.4986 5.59715 10.4986L5.59588 10.4976L5.59302 10.4954L5.58334 10.4878L5.5488 10.4603C5.51924 10.4366 5.47689 10.4024 5.42359 10.3584C5.31704 10.2705 5.16637 10.1432 4.98626 9.98312C4.62695 9.66374 4.14592 9.20963 3.66275 8.67278C3.18149 8.13805 2.68552 7.50738 2.30686 6.8342C1.93161 6.16709 1.64453 5.41067 1.64453 4.63702C1.64453 2.25958 3.62286 0.28125 6.0003 0.28125C8.37774 0.28125 10.3561 2.25958 10.3561 4.63702C10.3561 5.41067 10.069 6.16709 9.69374 6.8342C9.31508 7.50738 8.81911 8.13805 8.33785 8.67278C7.85468 9.20963 7.37365 9.66374 7.01434 9.98312C6.83423 10.1432 6.68356 10.2705 6.57701 10.3584C6.52371 10.4024 6.48136 10.4366 6.4518 10.4603L6.41725 10.4878L6.40758 10.4954L6.40472 10.4976L6.40379 10.4983C6.40379 10.4983 6.4032 10.4988 6.0003 9.98077ZM6.0003 9.98077L6.40379 10.4983C6.16681 10.6826 5.83413 10.6829 5.59715 10.4986L6.0003 9.98077Z" fill="#606060"/>
<path fill-rule="evenodd" clip-rule="evenodd" d="M4.58579 2.86704C4.96086 2.49196 5.46957 2.28125 6 2.28125C6.53043 2.28125 7.03914 2.49196 7.41421 2.86704C7.78929 3.24211 8 3.75082 8 4.28125C8 4.81168 7.78929 5.32039 7.41421 5.69546C7.03914 6.07054 6.53043 6.28125 6 6.28125C5.46957 6.28125 4.96086 6.07054 4.58579 5.69546C4.21071 5.32039 4 4.81168 4 4.28125C4 3.75082 4.21071 3.24211 4.58579 2.86704Z" fill="white"/>
<path fill-rule="evenodd" clip-rule="evenodd" d="M5.29289 3.57414C5.48043 3.38661 5.73478 3.28125 6 3.28125C6.26522 3.28125 6.51957 3.38661 6.70711 3.57414C6.89464 3.76168 7 4.01603 7 4.28125C7 4.54647 6.89464 4.80082 6.70711 4.98836C6.51957 5.17589 6.26522 5.28125 6 5.28125C5.73478 5.28125 5.48043 5.17589 5.29289 4.98836C5.10536 4.80082 5 4.54647 5 4.28125C5 4.01603 5.10536 3.76168 5.29289 3.57414Z" fill="#606060"/>
<path fill-rule="evenodd" clip-rule="evenodd" d="M1.28624 8.49149C1.38965 8.2502 1.62691 8.09375 1.88942 8.09375H2.64824C3.01067 8.09375 3.30449 8.38756 3.30449 8.75C3.30449 9.11244 3.01067 9.40625 2.64824 9.40625H2.32215L1.65148 10.9712H10.3485L9.67785 9.40625H9.35176C8.98933 9.40625 8.69551 9.11244 8.69551 8.75C8.69551 8.38756 8.98933 8.09375 9.35176 8.09375H10.1106C10.3731 8.09375 10.6104 8.2502 10.7138 8.49149L11.9469 11.3689C12.0338 11.5717 12.013 11.8045 11.8916 11.9887C11.7702 12.1728 11.5643 12.2837 11.3437 12.2837H0.656252C0.435658 12.2837 0.229823 12.1728 0.108388 11.9887C-0.0130471 11.8045 -0.0338328 11.5717 0.0530633 11.3689L1.28624 8.49149Z" fill="#606060"/>
</svg>
