<svg width="16" height="16" viewBox="0 0 16 16" fill="none" xmlns="http://www.w3.org/2000/svg">
<path fill-rule="evenodd" clip-rule="evenodd" d="M14.7681 1.00455C14.9776 1.13402 15.1051 1.36271 15.1051 1.60896V12.2669C15.1051 12.536 14.953 12.782 14.7123 12.9024L10.4491 15.034C10.2491 15.134 10.0136 15.134 9.81362 15.034L5.86822 13.0613L1.92281 15.034C1.70256 15.1441 1.44099 15.1323 1.23151 15.0028C1.02204 14.8734 0.894531 14.6447 0.894531 14.3984V3.74054C0.894531 3.47142 1.04659 3.22539 1.2873 3.10503L5.55046 0.973451C5.75049 0.873434 5.98594 0.873434 6.18597 0.973451L10.1314 2.94615L14.0768 0.973451C14.297 0.863323 14.5586 0.875092 14.7681 1.00455ZM9.42085 4.17967L6.57874 2.75862V11.8277L9.42085 13.2488V4.17967ZM10.8419 13.2488L13.684 11.8277V2.75862L10.8419 4.17967V13.2488ZM5.15769 11.8277V2.75862L2.31558 4.17967V13.2488L5.15769 11.8277Z" fill="#FF7111"/>
</svg>
