<svg width="14" height="13" viewBox="0 0 14 13" fill="none" xmlns="http://www.w3.org/2000/svg">
<path fill-rule="evenodd" clip-rule="evenodd" d="M2.87867 0.878667C3.44127 0.316066 4.20432 0 4.99996 0C5.7956 0 6.55865 0.316066 7.12125 0.878667C7.68385 1.44127 7.99992 2.20432 7.99992 2.99996C7.99992 3.7956 7.68385 4.55865 7.12125 5.12125C6.55865 5.68385 5.7956 5.99992 4.99996 5.99992C4.20432 5.99992 3.44127 5.68385 2.87867 5.12125C2.31607 4.55865 2 3.7956 2 2.99996C2 2.20432 2.31607 1.44127 2.87867 0.878667ZM4.99996 1.34758C4.56172 1.34758 4.14143 1.52167 3.83155 1.83155C3.52167 2.14143 3.34758 2.56172 3.34758 2.99996C3.34758 3.4382 3.52167 3.85849 3.83155 4.16837C4.14143 4.47825 4.56172 4.65234 4.99996 4.65234C5.4382 4.65234 5.85849 4.47825 6.16837 4.16837C6.47825 3.85849 6.65234 3.4382 6.65234 2.99996C6.65234 2.56172 6.47825 2.14143 6.16837 1.83155C5.85849 1.52167 5.4382 1.34758 4.99996 1.34758Z" fill="#101014"/>
<path fill-rule="evenodd" clip-rule="evenodd" d="M4.77482 7.00452C5.44574 6.97641 6.11563 7.07966 6.74467 7.30812C7.3737 7.53658 7.94904 7.88559 8.43647 8.33439C8.9239 8.7832 9.31348 9.32264 9.58204 9.92065C9.8506 10.5187 9.99266 11.163 9.99978 11.8154L9.99986 11.8226L9.99982 12.3266C9.99982 12.6984 9.68953 12.9999 9.30676 12.9999H0.693057C0.310292 12.9999 0 12.6984 0 12.3266V11.8156C0.0133041 10.5735 0.514932 9.38339 1.40207 8.48897C2.28922 7.59455 3.49477 7.06352 4.77182 7.00465L4.77482 7.00452ZM4.83601 8.34991C3.91288 8.39284 3.0415 8.77686 2.40017 9.42345C1.80062 10.0279 1.44453 10.8191 1.39252 11.6532H8.60726C8.5815 11.2419 8.48158 10.8377 8.31159 10.4592C8.11734 10.0267 7.83556 9.63649 7.483 9.31187C7.13044 8.98725 6.7143 8.73481 6.25932 8.56957C5.8048 8.40449 5.32079 8.3298 4.83601 8.34991Z" fill="#101014"/>
<path fill-rule="evenodd" clip-rule="evenodd" d="M8 0.673788C8 0.301665 8.32845 0 8.73361 0C9.5999 0 10.4307 0.316066 11.0433 0.878667C11.6558 1.44127 11.9999 2.20432 11.9999 2.99996C11.9999 3.7956 11.6558 4.55865 11.0433 5.12125C10.4307 5.68385 9.5999 5.99992 8.73361 5.99992C8.32845 5.99992 8 5.69825 8 5.32613C8 4.95401 8.32845 4.65234 8.73361 4.65234C9.21077 4.65234 9.66837 4.47825 10.0058 4.16837C10.3432 3.85849 10.5327 3.4382 10.5327 2.99996C10.5327 2.56172 10.3432 2.14143 10.0058 1.83155C9.66837 1.52167 9.21077 1.34758 8.73361 1.34758C8.32845 1.34758 8 1.04591 8 0.673788Z" fill="#101014"/>
<path fill-rule="evenodd" clip-rule="evenodd" d="M9.01874 7.53215C9.10921 7.16318 9.50181 6.93279 9.89564 7.01755C11.0528 7.26658 12.0868 7.87314 12.8313 8.73958C13.5757 9.60603 13.9873 10.682 13.9998 11.7942L13.9999 11.8014H13.9999V12.3145C13.9999 12.693 13.6723 12.9999 13.2682 12.9999H11.2474C10.8433 12.9999 10.5158 12.693 10.5158 12.3145C10.5158 11.9359 10.8433 11.629 11.2474 11.629H12.5298C12.4818 10.8888 12.1896 10.1792 11.6913 9.59923C11.1529 8.97252 10.405 8.5338 9.56802 8.35368C9.17418 8.26892 8.92826 7.90111 9.01874 7.53215Z" fill="#101014"/>
</svg>
