<svg width="16" height="16" viewBox="0 0 16 16" fill="none" xmlns="http://www.w3.org/2000/svg">
<path fill-rule="evenodd" clip-rule="evenodd" d="M14.7681 1.00065C14.9776 1.13011 15.1051 1.35881 15.1051 1.60506V12.263C15.1051 12.5321 14.953 12.7781 14.7123 12.8985L10.4491 15.03C10.2491 15.1301 10.0136 15.1301 9.81362 15.03L5.86822 13.0573L1.92281 15.03C1.70256 15.1402 1.44099 15.1284 1.23151 14.9989C1.02204 14.8695 0.894531 14.6408 0.894531 14.3945V3.73664C0.894531 3.46751 1.04659 3.22148 1.2873 3.10112L5.55046 0.969544C5.75049 0.869528 5.98594 0.869528 6.18597 0.969544L10.1314 2.94224L14.0768 0.969544C14.297 0.859417 14.5586 0.871186 14.7681 1.00065ZM9.42085 4.17577L6.57874 2.75471V11.8238L9.42085 13.2449V4.17577ZM10.8419 13.2449L13.684 11.8238V2.75471L10.8419 4.17577V13.2449ZM5.15769 11.8238V2.75471L2.31558 4.17577V13.2449L5.15769 11.8238Z" fill="#101014"/>
</svg>
