<svg width="23" height="17" viewBox="0 0 23 17" fill="none" xmlns="http://www.w3.org/2000/svg">
<mask id="path-1-outside-1_243_4148" maskUnits="userSpaceOnUse" x="0" y="0" width="23" height="17" fill="black">
<rect fill="white" width="23" height="17"/>
<path d="M14.3916 8.12281C15.4059 8.12281 16.2291 8.92056 16.2291 9.90351V13.2105H16.2249L16.225 15.2368C16.225 15.4392 16.1421 15.6334 15.9944 15.7765C15.8467 15.9196 15.6464 16 15.4375 16C15.2287 16 15.0284 15.9196 14.8807 15.7765C14.733 15.6334 14.65 15.4392 14.65 15.2368L14.6499 11.1754H14.6541V9.90351C14.6541 9.83604 14.6265 9.77134 14.5773 9.72363C14.528 9.67592 14.4613 9.64912 14.3916 9.64912H8.61457C8.54495 9.64912 8.47818 9.67592 8.42895 9.72363C8.37973 9.77134 8.35207 9.83604 8.35207 9.90351V13.2105H8.34997L8.35006 15.2368C8.35006 15.4392 8.26709 15.6334 8.1194 15.7765C7.97172 15.9196 7.77142 16 7.56256 16C7.3537 16 7.1534 15.9196 7.00571 15.7765C6.85803 15.6334 6.77506 15.4392 6.77506 15.2368L6.77498 11.1754H6.77708V9.90351C6.77708 8.92056 7.59922 8.12281 8.61457 8.12281H14.3916ZM20.4249 9.90351L20.425 15.2368C20.425 15.4392 20.508 15.6334 20.6557 15.7765C20.8033 15.9196 21.0036 16 21.2125 16C21.4214 16 21.6217 15.9196 21.7693 15.7765C21.917 15.6334 22 15.4392 22 15.2368L21.9999 9.90351C21.9999 9.43124 21.8063 8.97831 21.4617 8.64436C21.1171 8.31042 20.6498 8.12281 20.1624 8.12281H16.6187C16.9788 8.54509 17.214 9.07116 17.2676 9.64912H20.1624C20.232 9.64912 20.2988 9.67592 20.348 9.72363C20.3973 9.77134 20.4249 9.83604 20.4249 9.90351ZM1.00009 15.2368C1.00009 15.4392 1.08305 15.6334 1.23074 15.7765C1.37842 15.9196 1.57873 16 1.78758 16C1.99644 16 2.19674 15.9196 2.34443 15.7765C2.49211 15.6334 2.57508 15.4392 2.57508 15.2368L2.57499 9.90351C2.57499 9.83604 2.60265 9.77134 2.65188 9.72363C2.70111 9.67592 2.76787 9.64912 2.83749 9.64912H5.73863C5.79086 9.08851 6.01709 8.55637 6.38753 8.12281H2.83749C2.35016 8.12281 1.88279 8.31042 1.53819 8.64436C1.19359 8.97831 1 9.43124 1 9.90351L1.00009 15.2368ZM11.5 1C12.3354 1 13.1366 1.32162 13.7273 1.8941C14.3181 2.46657 14.6499 3.24302 14.6499 4.05263C14.6499 4.86224 14.3181 5.63869 13.7273 6.21117C13.1366 6.78365 12.3354 7.10526 11.5 7.10526C10.6645 7.10526 9.86332 6.78365 9.27258 6.21117C8.68184 5.63869 8.34997 4.86224 8.34997 4.05263C8.34997 3.24302 8.68184 2.46657 9.27258 1.8941C9.86332 1.32162 10.6645 1 11.5 1ZM11.5 2.52632C11.0822 2.52632 10.6816 2.68712 10.3863 2.97336C10.0909 3.2596 9.92496 3.64783 9.92496 4.05263C9.92496 4.45744 10.0909 4.84566 10.3863 5.1319C10.6816 5.41814 11.0822 5.57895 11.5 5.57895C11.9177 5.57895 12.3183 5.41814 12.6136 5.1319C12.909 4.84566 13.075 4.45744 13.075 4.05263C13.075 3.64783 12.909 3.2596 12.6136 2.97336C12.3183 2.68712 11.9177 2.52632 11.5 2.52632ZM18.3249 2.01754C19.0211 2.01754 19.6888 2.28556 20.1811 2.76262C20.6734 3.23969 20.9499 3.88673 20.9499 4.5614C20.9499 5.23608 20.6734 5.88312 20.1811 6.36018C19.6888 6.83725 19.0211 7.10526 18.3249 7.10526C17.6287 7.10526 16.9611 6.83725 16.4688 6.36018C15.9765 5.88312 15.6999 5.23608 15.6999 4.5614C15.6999 3.88673 15.9765 3.23969 16.4688 2.76262C16.9611 2.28556 17.6287 2.01754 18.3249 2.01754ZM18.3249 3.54386C18.0465 3.54386 17.7794 3.65107 17.5825 3.84189C17.3856 4.03272 17.2749 4.29153 17.2749 4.5614C17.2749 4.83127 17.3856 5.09009 17.5825 5.28092C17.7794 5.47174 18.0465 5.57895 18.3249 5.57895C18.6034 5.57895 18.8705 5.47174 19.0674 5.28092C19.2643 5.09009 19.3749 4.83127 19.3749 4.5614C19.3749 4.29153 19.2643 4.03272 19.0674 3.84189C18.8705 3.65107 18.6034 3.54386 18.3249 3.54386ZM4.67498 2.01754C5.37118 2.01754 6.03885 2.28556 6.53113 2.76262C7.02341 3.23969 7.29997 3.88673 7.29997 4.5614C7.29997 5.23608 7.02341 5.88312 6.53113 6.36018C6.03885 6.83725 5.37118 7.10526 4.67498 7.10526C3.97879 7.10526 3.31112 6.83725 2.81884 6.36018C2.32656 5.88312 2.05 5.23608 2.05 4.5614C2.05 3.88673 2.32656 3.23969 2.81884 2.76262C3.31112 2.28556 3.97879 2.01754 4.67498 2.01754ZM4.67498 3.54386C4.39651 3.54386 4.12944 3.65107 3.93253 3.84189C3.73561 4.03272 3.62499 4.29153 3.62499 4.5614C3.62499 4.83127 3.73561 5.09009 3.93253 5.28092C4.12944 5.47174 4.39651 5.57895 4.67498 5.57895C4.95346 5.57895 5.22053 5.47174 5.41744 5.28092C5.61436 5.09009 5.72498 4.83127 5.72498 4.5614C5.72498 4.29153 5.61436 4.03272 5.41744 3.84189C5.22053 3.65107 4.95346 3.54386 4.67498 3.54386Z"/>
</mask>
<path d="M14.3916 8.12281C15.4059 8.12281 16.2291 8.92056 16.2291 9.90351V13.2105H16.2249L16.225 15.2368C16.225 15.4392 16.1421 15.6334 15.9944 15.7765C15.8467 15.9196 15.6464 16 15.4375 16C15.2287 16 15.0284 15.9196 14.8807 15.7765C14.733 15.6334 14.65 15.4392 14.65 15.2368L14.6499 11.1754H14.6541V9.90351C14.6541 9.83604 14.6265 9.77134 14.5773 9.72363C14.528 9.67592 14.4613 9.64912 14.3916 9.64912H8.61457C8.54495 9.64912 8.47818 9.67592 8.42895 9.72363C8.37973 9.77134 8.35207 9.83604 8.35207 9.90351V13.2105H8.34997L8.35006 15.2368C8.35006 15.4392 8.26709 15.6334 8.1194 15.7765C7.97172 15.9196 7.77142 16 7.56256 16C7.3537 16 7.1534 15.9196 7.00571 15.7765C6.85803 15.6334 6.77506 15.4392 6.77506 15.2368L6.77498 11.1754H6.77708V9.90351C6.77708 8.92056 7.59922 8.12281 8.61457 8.12281H14.3916ZM20.4249 9.90351L20.425 15.2368C20.425 15.4392 20.508 15.6334 20.6557 15.7765C20.8033 15.9196 21.0036 16 21.2125 16C21.4214 16 21.6217 15.9196 21.7693 15.7765C21.917 15.6334 22 15.4392 22 15.2368L21.9999 9.90351C21.9999 9.43124 21.8063 8.97831 21.4617 8.64436C21.1171 8.31042 20.6498 8.12281 20.1624 8.12281H16.6187C16.9788 8.54509 17.214 9.07116 17.2676 9.64912H20.1624C20.232 9.64912 20.2988 9.67592 20.348 9.72363C20.3973 9.77134 20.4249 9.83604 20.4249 9.90351ZM1.00009 15.2368C1.00009 15.4392 1.08305 15.6334 1.23074 15.7765C1.37842 15.9196 1.57873 16 1.78758 16C1.99644 16 2.19674 15.9196 2.34443 15.7765C2.49211 15.6334 2.57508 15.4392 2.57508 15.2368L2.57499 9.90351C2.57499 9.83604 2.60265 9.77134 2.65188 9.72363C2.70111 9.67592 2.76787 9.64912 2.83749 9.64912H5.73863C5.79086 9.08851 6.01709 8.55637 6.38753 8.12281H2.83749C2.35016 8.12281 1.88279 8.31042 1.53819 8.64436C1.19359 8.97831 1 9.43124 1 9.90351L1.00009 15.2368ZM11.5 1C12.3354 1 13.1366 1.32162 13.7273 1.8941C14.3181 2.46657 14.6499 3.24302 14.6499 4.05263C14.6499 4.86224 14.3181 5.63869 13.7273 6.21117C13.1366 6.78365 12.3354 7.10526 11.5 7.10526C10.6645 7.10526 9.86332 6.78365 9.27258 6.21117C8.68184 5.63869 8.34997 4.86224 8.34997 4.05263C8.34997 3.24302 8.68184 2.46657 9.27258 1.8941C9.86332 1.32162 10.6645 1 11.5 1ZM11.5 2.52632C11.0822 2.52632 10.6816 2.68712 10.3863 2.97336C10.0909 3.2596 9.92496 3.64783 9.92496 4.05263C9.92496 4.45744 10.0909 4.84566 10.3863 5.1319C10.6816 5.41814 11.0822 5.57895 11.5 5.57895C11.9177 5.57895 12.3183 5.41814 12.6136 5.1319C12.909 4.84566 13.075 4.45744 13.075 4.05263C13.075 3.64783 12.909 3.2596 12.6136 2.97336C12.3183 2.68712 11.9177 2.52632 11.5 2.52632ZM18.3249 2.01754C19.0211 2.01754 19.6888 2.28556 20.1811 2.76262C20.6734 3.23969 20.9499 3.88673 20.9499 4.5614C20.9499 5.23608 20.6734 5.88312 20.1811 6.36018C19.6888 6.83725 19.0211 7.10526 18.3249 7.10526C17.6287 7.10526 16.9611 6.83725 16.4688 6.36018C15.9765 5.88312 15.6999 5.23608 15.6999 4.5614C15.6999 3.88673 15.9765 3.23969 16.4688 2.76262C16.9611 2.28556 17.6287 2.01754 18.3249 2.01754ZM18.3249 3.54386C18.0465 3.54386 17.7794 3.65107 17.5825 3.84189C17.3856 4.03272 17.2749 4.29153 17.2749 4.5614C17.2749 4.83127 17.3856 5.09009 17.5825 5.28092C17.7794 5.47174 18.0465 5.57895 18.3249 5.57895C18.6034 5.57895 18.8705 5.47174 19.0674 5.28092C19.2643 5.09009 19.3749 4.83127 19.3749 4.5614C19.3749 4.29153 19.2643 4.03272 19.0674 3.84189C18.8705 3.65107 18.6034 3.54386 18.3249 3.54386ZM4.67498 2.01754C5.37118 2.01754 6.03885 2.28556 6.53113 2.76262C7.02341 3.23969 7.29997 3.88673 7.29997 4.5614C7.29997 5.23608 7.02341 5.88312 6.53113 6.36018C6.03885 6.83725 5.37118 7.10526 4.67498 7.10526C3.97879 7.10526 3.31112 6.83725 2.81884 6.36018C2.32656 5.88312 2.05 5.23608 2.05 4.5614C2.05 3.88673 2.32656 3.23969 2.81884 2.76262C3.31112 2.28556 3.97879 2.01754 4.67498 2.01754ZM4.67498 3.54386C4.39651 3.54386 4.12944 3.65107 3.93253 3.84189C3.73561 4.03272 3.62499 4.29153 3.62499 4.5614C3.62499 4.83127 3.73561 5.09009 3.93253 5.28092C4.12944 5.47174 4.39651 5.57895 4.67498 5.57895C4.95346 5.57895 5.22053 5.47174 5.41744 5.28092C5.61436 5.09009 5.72498 4.83127 5.72498 4.5614C5.72498 4.29153 5.61436 4.03272 5.41744 3.84189C5.22053 3.65107 4.95346 3.54386 4.67498 3.54386Z" fill="#101014"/>
<path d="M14.3916 8.12281C15.4059 8.12281 16.2291 8.92056 16.2291 9.90351V13.2105H16.2249L16.225 15.2368C16.225 15.4392 16.1421 15.6334 15.9944 15.7765C15.8467 15.9196 15.6464 16 15.4375 16C15.2287 16 15.0284 15.9196 14.8807 15.7765C14.733 15.6334 14.65 15.4392 14.65 15.2368L14.6499 11.1754H14.6541V9.90351C14.6541 9.83604 14.6265 9.77134 14.5773 9.72363C14.528 9.67592 14.4613 9.64912 14.3916 9.64912H8.61457C8.54495 9.64912 8.47818 9.67592 8.42895 9.72363C8.37973 9.77134 8.35207 9.83604 8.35207 9.90351V13.2105H8.34997L8.35006 15.2368C8.35006 15.4392 8.26709 15.6334 8.1194 15.7765C7.97172 15.9196 7.77142 16 7.56256 16C7.3537 16 7.1534 15.9196 7.00571 15.7765C6.85803 15.6334 6.77506 15.4392 6.77506 15.2368L6.77498 11.1754H6.77708V9.90351C6.77708 8.92056 7.59922 8.12281 8.61457 8.12281H14.3916ZM20.4249 9.90351L20.425 15.2368C20.425 15.4392 20.508 15.6334 20.6557 15.7765C20.8033 15.9196 21.0036 16 21.2125 16C21.4214 16 21.6217 15.9196 21.7693 15.7765C21.917 15.6334 22 15.4392 22 15.2368L21.9999 9.90351C21.9999 9.43124 21.8063 8.97831 21.4617 8.64436C21.1171 8.31042 20.6498 8.12281 20.1624 8.12281H16.6187C16.9788 8.54509 17.214 9.07116 17.2676 9.64912H20.1624C20.232 9.64912 20.2988 9.67592 20.348 9.72363C20.3973 9.77134 20.4249 9.83604 20.4249 9.90351ZM1.00009 15.2368C1.00009 15.4392 1.08305 15.6334 1.23074 15.7765C1.37842 15.9196 1.57873 16 1.78758 16C1.99644 16 2.19674 15.9196 2.34443 15.7765C2.49211 15.6334 2.57508 15.4392 2.57508 15.2368L2.57499 9.90351C2.57499 9.83604 2.60265 9.77134 2.65188 9.72363C2.70111 9.67592 2.76787 9.64912 2.83749 9.64912H5.73863C5.79086 9.08851 6.01709 8.55637 6.38753 8.12281H2.83749C2.35016 8.12281 1.88279 8.31042 1.53819 8.64436C1.19359 8.97831 1 9.43124 1 9.90351L1.00009 15.2368ZM11.5 1C12.3354 1 13.1366 1.32162 13.7273 1.8941C14.3181 2.46657 14.6499 3.24302 14.6499 4.05263C14.6499 4.86224 14.3181 5.63869 13.7273 6.21117C13.1366 6.78365 12.3354 7.10526 11.5 7.10526C10.6645 7.10526 9.86332 6.78365 9.27258 6.21117C8.68184 5.63869 8.34997 4.86224 8.34997 4.05263C8.34997 3.24302 8.68184 2.46657 9.27258 1.8941C9.86332 1.32162 10.6645 1 11.5 1ZM11.5 2.52632C11.0822 2.52632 10.6816 2.68712 10.3863 2.97336C10.0909 3.2596 9.92496 3.64783 9.92496 4.05263C9.92496 4.45744 10.0909 4.84566 10.3863 5.1319C10.6816 5.41814 11.0822 5.57895 11.5 5.57895C11.9177 5.57895 12.3183 5.41814 12.6136 5.1319C12.909 4.84566 13.075 4.45744 13.075 4.05263C13.075 3.64783 12.909 3.2596 12.6136 2.97336C12.3183 2.68712 11.9177 2.52632 11.5 2.52632ZM18.3249 2.01754C19.0211 2.01754 19.6888 2.28556 20.1811 2.76262C20.6734 3.23969 20.9499 3.88673 20.9499 4.5614C20.9499 5.23608 20.6734 5.88312 20.1811 6.36018C19.6888 6.83725 19.0211 7.10526 18.3249 7.10526C17.6287 7.10526 16.9611 6.83725 16.4688 6.36018C15.9765 5.88312 15.6999 5.23608 15.6999 4.5614C15.6999 3.88673 15.9765 3.23969 16.4688 2.76262C16.9611 2.28556 17.6287 2.01754 18.3249 2.01754ZM18.3249 3.54386C18.0465 3.54386 17.7794 3.65107 17.5825 3.84189C17.3856 4.03272 17.2749 4.29153 17.2749 4.5614C17.2749 4.83127 17.3856 5.09009 17.5825 5.28092C17.7794 5.47174 18.0465 5.57895 18.3249 5.57895C18.6034 5.57895 18.8705 5.47174 19.0674 5.28092C19.2643 5.09009 19.3749 4.83127 19.3749 4.5614C19.3749 4.29153 19.2643 4.03272 19.0674 3.84189C18.8705 3.65107 18.6034 3.54386 18.3249 3.54386ZM4.67498 2.01754C5.37118 2.01754 6.03885 2.28556 6.53113 2.76262C7.02341 3.23969 7.29997 3.88673 7.29997 4.5614C7.29997 5.23608 7.02341 5.88312 6.53113 6.36018C6.03885 6.83725 5.37118 7.10526 4.67498 7.10526C3.97879 7.10526 3.31112 6.83725 2.81884 6.36018C2.32656 5.88312 2.05 5.23608 2.05 4.5614C2.05 3.88673 2.32656 3.23969 2.81884 2.76262C3.31112 2.28556 3.97879 2.01754 4.67498 2.01754ZM4.67498 3.54386C4.39651 3.54386 4.12944 3.65107 3.93253 3.84189C3.73561 4.03272 3.62499 4.29153 3.62499 4.5614C3.62499 4.83127 3.73561 5.09009 3.93253 5.28092C4.12944 5.47174 4.39651 5.57895 4.67498 5.57895C4.95346 5.57895 5.22053 5.47174 5.41744 5.28092C5.61436 5.09009 5.72498 4.83127 5.72498 4.5614C5.72498 4.29153 5.61436 4.03272 5.41744 3.84189C5.22053 3.65107 4.95346 3.54386 4.67498 3.54386Z" stroke="#101014" stroke-width="0.4" mask="url(#path-1-outside-1_243_4148)"/>
</svg>
