<svg width="21" height="16" viewBox="0 0 21 16" fill="none" xmlns="http://www.w3.org/2000/svg">
<path d="M2.1 1.9H2V2V4V4.1H2.1H5.15V11.9H2.1H2V12V14V14.1H2.1H9.45H9.55V14V11.87V11.7918L9.47406 11.7729C8.59433 11.5549 7.81609 11.0658 7.26031 10.3829C6.70464 9.70027 6.40246 8.86229 6.4 7.99989C6.40005 6.22931 7.66732 4.67679 9.47415 4.22704L9.55 4.20816V4.13V2V1.9H9.45H2.1ZM11.55 1.9H11.45V2V4.13V4.20824L11.5259 4.22706C12.4057 4.44512 13.1839 4.93424 13.7397 5.61706C14.2953 6.2997 14.5975 7.13763 14.6 8C14.6 9.77063 13.3327 11.3232 11.5258 11.773L11.45 11.7918V11.87V14V14.1H11.55H18.9H19V14V12V11.9H18.9H15.85V4.1H18.9H19V4V2V1.9H18.9H11.55ZM2.1 5.9H2V6V10V10.1H2.1H3.15H3.25V10V6V5.9H3.15H2.1ZM17.85 5.9H17.75V6V10V10.1H17.85H18.9H19V10V6V5.9H18.9H17.85ZM11.5984 6.18249L11.45 6.10043V6.27V9.73V9.89957L11.5984 9.81751C12.2796 9.44082 12.7 8.74825 12.7 8C12.7 7.25175 12.2796 6.55918 11.5984 6.18249ZM9.55 6.27V6.10043L9.40161 6.18249C8.72043 6.55918 8.3 7.25175 8.3 8C8.3 8.74825 8.72043 9.44082 9.40161 9.81751L9.55 9.89957V9.73V6.27ZM0.1 2C0.1 0.94977 0.985075 0.1 2.1 0.1H18.9C19.432 0.1 19.9412 0.301305 20.316 0.6582C20.6905 1.01494 20.9 1.49771 20.9 2V14C20.9 14.5023 20.6905 14.9851 20.316 15.3418C19.9412 15.6987 19.432 15.9 18.9 15.9H2.1C1.56804 15.9 1.05878 15.6987 0.684041 15.3418C0.309467 14.9851 0.1 14.5023 0.1 14V2Z" fill="#101014" stroke="white" stroke-width="0.2"/>
</svg>
